<?xml version="1.0" standalone="no"?>
<!DOCTYPE svg PUBLIC "-//W3C//DTD SVG 20010904//EN"
 "http://www.w3.org/TR/2001/REC-SVG-20010904/DTD/svg10.dtd">
<svg version="1.0" xmlns="http://www.w3.org/2000/svg"
 width="1113.000000pt" height="1000.000000pt" viewBox="0 0 1113.000000 1000.000000"
 preserveAspectRatio="xMidYMid meet">

<g transform="translate(0.000000,1000.000000) scale(0.100000,-0.100000)"
fill="#000000" stroke="none">
<path d="M5125 8810 c-16 -16 -25 -30 -19 -30 16 0 74 39 74 50 0 19 -26 10
-55 -20z"/>
<path d="M6601 8779 c-16 -13 -21 -23 -15 -29 7 -7 18 1 32 20 26 34 18 39
-17 9z"/>
<path d="M5330 8737 c-69 -40 -145 -114 -154 -151 -5 -21 -11 -27 -26 -23 -22
6 -100 -64 -100 -89 0 -13 3 -13 22 0 14 10 27 12 38 6 14 -7 27 1 61 38 25
26 59 66 77 89 18 23 54 52 79 65 30 15 49 32 55 50 6 16 14 28 19 28 5 0 9 5
9 10 0 16 -22 10 -80 -23z"/>
<path d="M4828 8560 c-27 -28 -59 -55 -71 -61 -12 -5 -43 -26 -68 -47 -25 -20
-82 -65 -127 -100 -45 -34 -114 -95 -155 -135 -40 -39 -111 -106 -158 -147
-46 -41 -86 -77 -89 -80 -3 -3 -84 -79 -180 -170 -96 -90 -213 -201 -260 -245
-47 -45 -110 -104 -140 -131 -30 -28 -66 -61 -80 -73 -14 -13 -81 -71 -150
-129 -69 -59 -134 -115 -146 -127 -42 -40 -94 -78 -133 -96 -22 -10 -56 -39
-79 -68 -22 -28 -109 -109 -194 -179 -84 -71 -207 -178 -273 -237 -166 -148
-614 -585 -688 -670 l-61 -70 54 50 c29 28 60 56 68 62 10 9 19 10 33 3 25
-14 24 -24 -4 -43 -18 -12 -20 -18 -10 -28 7 -7 13 -18 13 -23 0 -20 -75 -93
-198 -195 -113 -94 -202 -191 -202 -220 0 -12 46 12 65 34 27 31 136 115 150
115 29 0 15 -33 -32 -77 -26 -23 -51 -43 -55 -43 -5 0 -8 -7 -8 -15 0 -9 -21
-30 -47 -48 -102 -71 -344 -256 -451 -345 -155 -130 -408 -366 -444 -416 -54
-75 -94 -166 -71 -166 3 0 29 21 58 48 92 84 352 278 361 269 3 -3 -56 -67
-130 -143 -75 -76 -136 -141 -136 -145 0 -10 -74 -64 -84 -61 -12 4 -66 -48
-76 -75 -5 -12 -44 -47 -87 -79 -104 -77 -181 -155 -227 -232 -42 -69 -43 -86
-3 -49 14 13 79 63 144 113 65 49 154 118 198 154 114 93 115 93 121 87 11
-11 -27 -65 -112 -157 -98 -106 -168 -197 -188 -244 -31 -72 -36 -88 -36 -113
0 -25 2 -24 48 24 41 43 54 51 83 49 29 -1 34 -5 37 -28 3 -22 -11 -43 -73
-109 -42 -44 -75 -85 -73 -91 7 -20 14 -15 174 115 45 37 87 67 93 67 21 0 11
-33 -24 -76 -19 -23 -35 -52 -35 -64 0 -11 -11 -42 -25 -68 -26 -48 -32 -87
-16 -97 6 -3 15 5 22 17 17 33 46 58 67 58 10 0 35 22 55 49 42 55 152 162
213 206 21 16 51 40 66 53 15 14 36 30 47 36 12 6 57 39 101 74 44 34 80 57
80 49 0 -21 -96 -122 -189 -200 -164 -136 -252 -243 -282 -345 -10 -34 -10
-47 1 -66 11 -21 10 -29 -9 -59 -16 -26 -19 -41 -12 -58 6 -18 3 -33 -10 -59
-18 -33 -24 -60 -14 -60 2 0 18 13 35 30 17 17 37 30 45 30 7 0 15 6 18 13 8
22 41 -7 60 -54 13 -35 16 -62 12 -129 l-5 -85 22 30 c41 55 66 75 83 68 14
-5 16 -14 11 -44 -5 -33 -4 -39 12 -39 10 0 32 15 48 33 17 17 38 39 47 47 10
8 36 34 58 58 23 25 47 42 57 40 22 -4 27 -41 7 -58 -8 -7 -15 -22 -15 -34 0
-31 -24 -61 -43 -53 -10 4 -25 -4 -39 -20 -48 -53 -71 -73 -87 -73 -31 0 -166
-157 -244 -281 -53 -85 -99 -184 -90 -193 4 -4 70 56 147 131 162 159 321 306
336 311 31 11 0 -41 -69 -117 -43 -47 -102 -117 -131 -156 -29 -38 -65 -83
-80 -98 -27 -27 -78 -162 -66 -175 3 -3 6 -2 6 3 0 4 7 2 15 -5 11 -9 15 -32
15 -82 0 -61 2 -69 15 -58 8 6 23 9 36 5 16 -6 27 -1 44 21 25 31 49 25 42
-11 -3 -17 1 -25 15 -28 23 -6 23 -28 0 -75 -12 -23 -16 -47 -13 -61 l7 -25
26 34 c25 32 28 33 45 17 12 -10 27 -14 41 -10 16 4 22 1 22 -10 0 -8 -4 -17
-9 -19 -4 -1 -11 -21 -15 -43 l-7 -40 73 76 c40 42 105 99 143 128 39 28 75
56 82 61 7 6 16 10 20 10 4 0 19 9 33 20 14 11 33 20 43 20 21 0 23 -33 3 -49
-8 -6 -24 -34 -36 -62 -20 -48 -20 -52 -5 -69 12 -13 14 -24 8 -35 -8 -14 2
-86 14 -104 5 -8 33 22 33 35 0 21 51 94 65 94 13 0 35 -98 35 -153 0 -32 16
-34 45 -7 11 11 35 23 53 26 31 6 32 6 32 -30 l0 -37 43 34 c60 49 108 77 134
77 12 0 38 14 56 30 19 17 40 30 46 30 29 0 18 -34 -38 -110 -63 -89 -129
-216 -150 -290 -7 -25 -17 -55 -22 -68 -19 -48 -10 -58 20 -23 34 41 51 34 51
-20 0 -21 3 -39 6 -39 14 0 52 26 77 54 23 25 30 28 38 16 9 -14 8 -21 -7 -68
-10 -33 57 -22 100 15 58 51 92 20 57 -53 -60 -124 -91 -193 -91 -198 0 -16
39 -3 60 19 13 14 29 25 37 25 7 0 22 9 34 21 41 41 67 -3 29 -51 -31 -39 -26
-50 21 -45 37 3 68 25 69 48 0 15 21 6 28 -13 7 -19 9 -19 30 -4 12 8 22 22
22 30 0 8 6 14 14 14 8 0 16 3 18 8 2 4 32 22 68 41 36 19 67 37 70 40 3 3 25
20 50 36 24 17 74 52 110 79 36 26 72 51 80 54 8 3 21 14 28 24 17 23 83 42
116 34 31 -8 35 -42 6 -51 -13 -4 -20 -15 -20 -30 0 -22 -5 -24 -52 -27 -50
-3 -53 -5 -53 -30 -1 -36 -21 -56 -81 -83 -28 -13 -61 -36 -73 -54 -12 -17
-27 -29 -31 -26 -16 10 -86 -44 -120 -93 -18 -26 -84 -96 -145 -157 -121 -118
-133 -140 -114 -209 5 -20 12 -36 14 -36 2 0 20 9 40 20 20 11 46 20 59 20 24
0 82 25 91 40 3 5 25 -5 50 -22 43 -31 44 -31 78 -14 19 9 42 16 51 16 9 0 24
4 34 9 61 33 290 141 298 141 6 0 16 6 23 13 6 6 15 12 19 13 4 0 24 8 46 17
69 30 108 18 71 -23 -19 -21 -62 -141 -71 -195 -6 -42 -6 -42 38 -64 24 -11
54 -21 66 -21 34 0 38 -21 9 -45 -15 -11 -27 -24 -27 -28 0 -14 22 -6 66 24
38 26 52 30 102 28 31 -1 69 1 85 6 24 6 27 4 27 -16 0 -12 -18 -47 -41 -76
-45 -60 -45 -82 -1 -40 16 15 37 27 48 27 12 0 29 9 40 21 24 27 100 63 114
54 5 -3 10 -20 10 -36 0 -26 3 -29 25 -23 30 7 33 -10 8 -38 -23 -25 -3 -49
26 -31 26 16 91 19 117 5 18 -9 31 -7 75 15 36 18 73 27 111 29 38 1 67 9 85
22 15 11 42 23 59 26 17 4 42 18 54 32 15 15 35 24 54 24 20 0 45 13 78 41 46
39 49 40 76 26 27 -13 31 -12 63 15 51 43 56 47 94 69 19 12 35 24 35 28 0 3
9 12 21 19 27 17 49 0 41 -30 l-5 -22 29 21 c16 11 37 23 47 26 9 4 17 11 17
17 0 5 9 10 21 10 18 0 20 -4 15 -25 -5 -19 -2 -25 10 -25 12 0 15 6 10 25 -8
30 15 45 38 25 21 -16 51 2 105 62 25 28 49 47 57 44 7 -3 27 6 43 19 33 29
59 32 68 10 6 -17 -3 -29 -77 -101 -56 -55 -37 -57 34 -4 29 22 61 40 71 40
10 0 41 17 69 38 28 21 78 55 111 77 33 21 94 64 135 94 41 31 80 56 85 56 6
0 20 6 33 13 34 20 50 3 21 -22 -14 -12 -37 -38 -52 -58 -16 -21 -34 -38 -41
-38 -8 0 -25 -15 -39 -32 -14 -18 -85 -93 -156 -167 -72 -74 -129 -136 -127
-139 3 -2 25 10 50 27 24 17 49 31 53 31 5 0 27 18 48 40 39 40 71 50 93 28 9
-9 24 -3 66 25 31 21 58 37 60 37 3 0 41 22 86 50 63 39 82 46 86 35 8 -20 27
-19 54 3 l22 17 -21 19 c-12 11 -21 23 -21 27 0 14 92 79 112 79 10 0 41 16
69 35 55 38 69 41 87 23 9 -9 12 -7 12 10 0 13 8 26 17 29 10 4 44 25 76 47
33 23 69 47 81 55 11 8 35 27 51 41 34 31 150 110 161 110 7 0 95 68 104 81 3
4 41 34 85 68 44 33 89 69 100 79 11 11 31 25 45 32 34 18 112 76 171 128 26
24 52 41 58 38 11 -7 61 13 61 25 0 4 -5 11 -10 14 -15 10 2 28 90 95 41 32
91 74 110 94 42 43 231 204 315 268 33 25 92 75 131 111 59 55 71 71 67 91 -4
18 2 29 21 41 14 9 30 14 36 10 5 -3 23 3 39 14 37 27 48 26 57 -1 6 -20 7
-19 20 11 17 40 18 81 3 81 -6 0 -9 10 -7 22 4 28 46 35 64 11 9 -13 13 -14
14 -4 0 7 19 31 42 52 l43 39 -37 0 c-20 0 -40 -4 -43 -10 -9 -15 -25 -12 -25
6 0 8 4 13 9 10 10 -7 65 41 73 64 7 20 41 1 48 -28 5 -20 6 -20 28 -2 27 22
28 32 2 48 -11 7 -20 17 -20 23 0 10 160 167 186 182 8 4 14 14 14 21 0 7 28
35 63 63 34 28 73 61 87 73 110 98 198 167 224 175 24 8 32 17 34 40 3 22 20
43 67 83 55 47 188 142 198 142 2 0 35 30 74 68 38 37 83 77 99 89 122 91 154
123 126 123 -22 0 -72 -33 -77 -51 -5 -14 -12 -18 -27 -13 -23 7 -74 -35 -89
-73 -5 -13 -16 -23 -26 -23 -10 0 -49 -29 -88 -65 -38 -36 -75 -65 -81 -65 -7
0 -19 11 -28 25 -13 19 -14 30 -6 45 17 32 -2 23 -35 -15 -22 -26 -34 -33 -45
-26 -12 8 -12 13 0 35 12 24 11 28 -15 56 -16 16 -36 32 -46 35 -28 9 -31 35
-5 45 13 4 38 27 55 49 21 27 41 41 56 41 15 0 25 7 29 23 10 36 7 39 -26 32
-35 -8 -87 -59 -88 -87 0 -25 -16 -30 -34 -12 -9 9 -24 13 -35 9 -15 -4 -24 5
-46 49 -26 51 -27 76 -3 76 6 0 16 -8 23 -17 12 -16 15 -16 34 7 13 16 20 35
18 52 -3 24 5 33 65 73 37 25 73 45 79 45 8 0 7 5 -1 16 -12 13 11 39 163 185
105 102 177 178 179 192 2 16 11 23 31 25 15 2 27 9 27 16 0 13 84 89 134 121
28 19 28 19 7 29 -24 11 -26 31 -6 66 8 14 14 33 15 43 0 10 29 45 65 78 36
34 65 67 65 75 0 7 7 17 16 22 12 6 7 9 -18 8 -18 -1 -39 -6 -47 -10 -9 -6
-18 -3 -27 8 -8 11 -18 15 -26 10 -7 -4 -42 -26 -78 -49 -83 -54 -114 -62
-137 -36 -9 11 -20 18 -24 16 -11 -7 -121 -14 -136 -8 -7 3 -13 11 -13 17 0
15 158 169 319 311 68 60 118 111 111 113 -17 6 -56 -16 -125 -70 -68 -55
-100 -61 -109 -22 -4 14 -2 32 3 38 26 31 -13 27 -61 -6 -34 -23 -48 -23 -48
2 0 19 -25 29 -32 12 -4 -10 -105 -72 -118 -72 -22 0 -7 24 43 70 150 139 191
180 180 180 -7 0 -34 -20 -60 -45 -25 -25 -53 -45 -61 -45 -8 0 -32 -14 -53
-31 -31 -25 -45 -29 -69 -24 -26 6 -44 -4 -142 -74 -62 -45 -120 -81 -128 -81
-9 0 -26 7 -38 16 -20 14 -25 14 -40 1 -9 -8 -36 -22 -59 -33 -24 -10 -43 -23
-43 -28 0 -10 -168 -96 -188 -96 -5 0 -17 -9 -27 -20 -22 -24 -41 -26 -49 -4
-6 15 -8 15 -24 2 -9 -9 -34 -22 -55 -29 -34 -12 -39 -11 -59 8 -17 18 -19 25
-9 37 15 17 139 79 201 100 57 18 34 30 -33 17 -44 -8 -51 -6 -77 16 -16 13
-32 33 -35 43 -11 33 104 170 327 390 115 112 208 210 208 217 0 9 -8 11 -24
7 -15 -3 -29 1 -40 12 -16 16 -16 18 9 44 37 38 30 66 -15 62 -18 -1 -40 -7
-47 -13 -7 -6 -20 -8 -29 -5 -15 6 -15 8 0 31 9 14 12 25 6 25 -5 0 -10 -3
-10 -8 0 -4 -9 -13 -20 -20 -17 -10 -25 -9 -45 4 -29 19 -32 36 -10 58 29 29
14 27 -22 -3 -21 -17 -49 -31 -64 -31 -15 0 -32 -6 -38 -14 -7 -8 -45 -35 -85
-61 -39 -26 -81 -60 -91 -76 -11 -16 -31 -32 -45 -35 -57 -11 -159 -50 -225
-85 -258 -135 -275 -143 -275 -120 0 5 33 42 73 83 85 88 271 296 275 309 2 5
-1 9 -7 9 -6 0 -20 9 -31 20 -17 17 -19 28 -14 58 7 41 20 62 38 62 16 0 101
80 109 104 6 15 14 18 46 13 35 -4 43 -1 80 34 48 47 53 69 14 66 -39 -3 -42
31 -7 66 15 16 24 33 20 42 -8 22 -24 19 -50 -10 -28 -30 -62 -35 -51 -7 4 9
8 26 9 37 0 11 19 37 42 58 23 20 54 55 69 77 28 41 28 49 -1 98 -4 7 -49 -22
-79 -49 -32 -31 -55 -37 -55 -16 0 18 26 54 75 107 31 33 44 56 49 88 6 38 4
42 -14 42 -11 0 -29 -5 -40 -12 -15 -10 -22 -9 -38 5 -26 24 -37 22 -70 -14
-32 -34 -62 -34 -62 -1 0 11 -7 25 -15 32 -11 9 -13 16 -5 24 12 12 13 36 1
36 -4 0 -25 -13 -46 -30 -26 -21 -44 -28 -60 -24 -15 4 -24 0 -28 -10 -10 -24
-31 -19 -44 11 -7 15 -13 30 -13 34 0 7 83 99 240 264 222 235 295 324 281
338 -16 16 -37 1 -55 -37 -9 -20 -23 -36 -29 -36 -23 0 -67 -25 -72 -41 -3 -9
-15 -21 -28 -28 -12 -6 -32 -27 -44 -46 -13 -19 -46 -52 -75 -73 -29 -22 -62
-49 -73 -62 -30 -34 -104 -82 -115 -75 -15 9 -12 32 5 39 8 3 15 12 15 21 0 8
-7 15 -15 15 -31 0 -13 32 54 95 53 51 67 70 64 87 -3 16 3 28 18 38 13 8 72
65 133 126 61 61 136 132 165 157 30 26 52 49 49 52 -3 4 -25 -11 -49 -32 -23
-21 -57 -45 -76 -54 -19 -8 -55 -34 -81 -57 -26 -23 -75 -66 -108 -96 -34 -29
-70 -57 -80 -60 -11 -3 -27 -19 -36 -36 -19 -34 -39 -38 -63 -13 -16 16 -16
17 1 30 10 7 24 13 32 13 21 0 8 25 -14 28 -12 2 -44 -18 -83 -52 -43 -37 -76
-58 -100 -62 -94 -15 -131 -28 -131 -46 0 -11 -7 -18 -18 -18 -37 0 -39 19
-10 78 15 31 28 70 28 86 0 19 10 41 27 58 l27 28 -30 0 c-16 0 -40 -9 -54
-20 -14 -11 -32 -20 -41 -20 -9 0 -32 -13 -52 -29 -20 -15 -51 -34 -69 -40
-18 -7 -40 -16 -49 -21 -9 -4 -22 -4 -30 1 -23 14 -31 10 -24 -12 5 -16 -2
-30 -34 -61 -42 -40 -73 -46 -79 -17 -1 9 17 38 41 65 25 27 46 58 48 69 3 13
14 21 30 23 33 4 119 94 119 125 0 12 9 41 20 65 15 33 24 42 43 42 21 0 37
16 37 36 0 2 -16 4 -35 4 -22 0 -38 6 -41 15 -9 23 -26 18 -54 -15 -30 -37
-65 -41 -54 -7 11 35 31 72 48 86 18 15 21 41 6 41 -15 0 -12 36 5 50 11 9 13
23 9 54 -7 48 -33 76 -47 50 -6 -10 -17 -14 -33 -10 -17 5 -26 1 -34 -14 -6
-11 -50 -47 -99 -79 -75 -51 -90 -66 -105 -104 -19 -52 -41 -65 -67 -41 -23
21 -35 12 -43 -29 -8 -45 -33 -77 -60 -77 -12 0 -27 -5 -33 -11 -13 -13 -43
-5 -43 10 0 5 16 19 35 31 43 27 46 44 5 35 -69 -15 -12 52 90 107 88 47 116
69 188 140 62 62 70 73 55 81 -10 5 -23 16 -30 25 -11 13 -17 11 -45 -17 -96
-93 -146 -131 -171 -131 -20 0 -27 -5 -27 -19 0 -25 -42 -65 -105 -101 -28
-16 -60 -39 -70 -50 -10 -11 -23 -20 -28 -20 -6 0 -19 -7 -29 -17 -16 -14 -18
-15 -18 0 0 9 5 19 11 22 5 4 14 18 20 31 5 14 23 33 41 42 41 22 103 80 95
89 -4 3 -19 -4 -32 -17 -22 -20 -29 -22 -45 -12 -16 10 -28 6 -74 -20 -38 -22
-56 -39 -56 -52 0 -18 1 -18 24 3 14 13 30 21 37 19 8 -3 2 -14 -17 -31 -17
-16 -32 -23 -37 -18 -5 5 -25 7 -43 4 -21 -3 -40 -1 -50 8 -14 12 -14 14 2 26
16 11 16 13 2 13 -24 0 -32 18 -17 36 10 13 10 17 0 23 -24 15 -8 44 29 54 50
13 62 25 49 49 -8 14 -7 25 5 43 18 27 21 45 7 45 -22 0 -154 -85 -174 -112
-12 -17 -52 -50 -89 -73 -37 -24 -72 -53 -78 -64 -6 -12 -15 -21 -20 -21 -5 0
-30 -20 -55 -45 -50 -48 -75 -50 -75 -5 0 16 -4 32 -10 35 -16 10 -11 41 10
60 24 21 26 35 6 35 -14 0 -47 -40 -58 -71 -4 -9 1 -31 10 -49 15 -32 15 -34
-6 -48 -12 -8 -22 -21 -22 -29 0 -11 -7 -13 -24 -9 -14 3 -27 2 -31 -3 -5 -9
-62 -41 -72 -41 -1 0 -3 8 -3 18 0 9 14 28 30 42 17 14 30 28 30 32 0 15 -51
8 -57 -8 -12 -32 -49 -61 -85 -68 -42 -8 -46 -2 -22 32 19 28 13 36 -20 28
-16 -4 -28 -16 -32 -31 -3 -14 -19 -30 -35 -37 -28 -13 -38 -32 -20 -42 4 -3
16 3 26 14 20 22 55 27 55 8 -1 -18 -41 -64 -64 -72 -10 -3 -25 -1 -32 5 -11
9 -18 8 -31 -2 -13 -11 -17 -11 -20 -1 -6 17 -28 15 -43 -3 -10 -12 -10 -19
-2 -27 30 -30 -6 -78 -59 -78 -15 0 -32 -7 -40 -16 -7 -8 -21 -13 -30 -11 -21
6 -46 -18 -29 -28 5 -3 10 -19 10 -36 0 -22 -5 -29 -19 -29 -10 0 -30 -10 -45
-21 -20 -16 -30 -19 -38 -11 -9 9 -7 17 7 32 33 37 4 21 -81 -45 -46 -36 -90
-65 -97 -65 -22 0 -28 12 -13 29 8 9 16 27 18 41 2 19 9 25 28 24 13 -1 32 7
43 16 16 16 17 21 5 40 -11 18 -11 23 5 35 19 13 40 82 31 97 -7 12 -76 -31
-102 -63 -14 -17 -33 -29 -47 -29 -12 0 -25 -7 -29 -15 -8 -22 -36 -18 -36 5
0 27 -12 25 -40 -5 -31 -33 -70 -34 -70 -1 0 28 33 72 60 81 11 4 20 11 20 16
0 19 -30 7 -76 -31 -54 -45 -90 -58 -107 -41 -8 8 -4 17 13 36 13 14 22 26 19
28 -2 1 -12 9 -21 16 -14 11 -21 11 -33 1 -11 -9 -20 -8 -43 6 -25 14 -37 15
-73 6 -36 -9 -48 -8 -66 4 -13 8 -23 18 -23 23 0 17 161 169 190 179 5 2 14
-6 20 -18 14 -26 33 -15 26 15 -5 20 -2 24 21 27 21 2 29 9 31 28 6 58 16 75
76 133 35 34 61 68 59 75 -4 10 -9 8 -18 -5 -11 -14 -18 -16 -31 -7 -26 15
-134 -57 -134 -90 0 -30 -26 -53 -72 -61 -27 -5 -38 -12 -38 -25 0 -23 -36
-54 -55 -47 -8 4 -15 16 -15 27 0 37 -30 21 -105 -55 -40 -41 -77 -75 -81 -75
-11 0 -174 -171 -174 -182 0 -5 -10 -8 -23 -8 -14 0 -32 -12 -45 -30 -13 -16
-29 -30 -37 -30 -8 0 -26 -18 -40 -41 -15 -23 -40 -46 -59 -54 -18 -8 -49 -32
-69 -54 -33 -37 -77 -55 -77 -32 0 10 266 275 319 318 19 15 46 40 59 56 14
15 28 27 31 27 9 0 175 156 318 297 100 99 123 127 118 143 -5 14 3 32 25 60
44 56 26 50 -32 -10z m112 -210 c0 -5 -5 -10 -11 -10 -5 0 -7 5 -4 10 3 6 8
10 11 10 2 0 4 -4 4 -10z m-320 -45 c-27 -29 -40 -32 -40 -10 0 9 10 20 23 25
37 15 42 11 17 -15z m2489 -54 c-52 -57 -69 -70 -69 -53 0 15 109 126 116 119
4 -4 -17 -33 -47 -66z m-663 -33 c-3 -13 -6 -29 -6 -36 0 -7 -31 -46 -70 -87
-38 -41 -70 -79 -70 -84 0 -15 -99 -63 -116 -57 -8 3 -14 11 -14 18 0 15 89
74 106 70 14 -3 24 31 14 47 -4 8 -23 -1 -56 -27 -27 -21 -58 -42 -68 -46 -17
-6 -17 -5 -5 11 16 20 97 101 147 146 27 25 35 28 43 16 7 -11 14 -8 36 18 34
39 68 45 59 11z m-1815 -89 c-94 -87 -95 -63 -1 37 32 34 45 43 54 34 8 -9 -5
-27 -53 -71z m2017 33 c2 -7 -3 -12 -12 -12 -9 0 -16 7 -16 16 0 17 22 14 28
-4z m740 -13 c3 -14 -17 -37 -68 -82 -17 -15 -24 -16 -36 -6 -17 14 -11 23 18
24 15 0 24 9 29 28 14 52 49 74 57 36z m-98 -8 c0 -4 -11 -19 -24 -32 -32 -33
-47 -65 -40 -84 7 -17 -31 -65 -52 -65 -6 0 -15 12 -18 26 -5 20 -2 32 15 47
21 19 21 21 4 34 -10 7 -16 16 -12 19 4 4 13 1 22 -6 13 -11 21 -6 52 29 36
40 53 50 53 32z m-450 -68 c0 -18 -47 -28 -65 -13 -24 20 -17 27 25 26 25 0
40 -5 40 -13z m-1000 -13 c0 -5 -4 -10 -10 -10 -5 0 -10 5 -10 10 0 6 5 10 10
10 6 0 10 -4 10 -10z m-1510 -15 c0 -8 -7 -15 -15 -15 -16 0 -20 12 -8 23 11
12 23 8 23 -8z m-50 -39 c0 -3 -218 -201 -292 -266 -36 -30 -53 -36 -25 -8 14
13 185 171 262 241 35 32 55 44 55 33z m360 -49 c0 -23 -99 -98 -127 -97 -10
1 109 109 120 110 4 0 7 -6 7 -13z m110 -31 c0 -13 -139 -116 -157 -116 -4 0
-28 -16 -52 -35 -33 -26 -47 -33 -55 -24 -8 8 -8 13 1 16 7 2 57 40 111 83
108 85 152 107 152 76z m315 -107 c10 -15 -1 -23 -20 -15 -9 3 -13 10 -10 16
8 13 22 13 30 -1z m-405 -43 c0 -12 -63 -76 -74 -76 -13 0 3 62 19 74 25 19
55 20 55 2z m293 -12 c19 -7 22 -20 7 -29 -17 -10 -11 -25 13 -34 20 -8 21
-10 3 -16 -26 -11 -92 60 -75 81 7 8 17 12 23 9 6 -3 19 -8 29 -11z m187 -29
c0 -8 -7 -15 -15 -15 -16 0 -20 12 -8 23 11 12 23 8 23 -8z m-580 -4 c0 -5 -7
-12 -16 -15 -14 -5 -15 -4 -4 9 14 17 20 19 20 6z m318 -3 c-6 -18 -28 -21
-28 -4 0 9 7 16 16 16 9 0 14 -5 12 -12z m-430 -16 c2 -7 -3 -12 -12 -12 -9 0
-16 7 -16 16 0 17 22 14 28 -4z m-545 -47 c-17 -23 -33 -32 -33 -19 0 5 41 43
48 44 2 0 -5 -11 -15 -25z m1391 10 c-4 -8 -12 -15 -20 -15 -20 0 -17 18 4 23
9 3 18 5 19 6 1 0 0 -6 -3 -14z m-534 -21 c0 -13 -21 -44 -30 -44 -14 0 -12
24 2 38 13 13 28 16 28 6z m350 -8 c0 -8 -4 -17 -9 -21 -12 -7 -24 12 -16 25
9 15 25 12 25 -4z m-1140 -4 c0 -12 -39 -46 -45 -41 -6 7 24 49 36 49 5 0 9
-4 9 -8z m-130 -32 c0 -5 -5 -10 -11 -10 -5 0 -7 5 -4 10 3 6 8 10 11 10 2 0
4 -4 4 -10z m740 -115 c-13 -14 -28 -25 -34 -25 -5 0 3 13 19 30 16 16 31 28
33 25 3 -3 -5 -16 -18 -30z m3210 6 c0 -6 -4 -13 -10 -16 -5 -3 -10 1 -10 9 0
9 5 16 10 16 6 0 10 -4 10 -9z m-4220 -130 c0 -5 -24 -28 -52 -52 -29 -24 -51
-40 -48 -37 3 4 23 27 45 52 39 44 55 55 55 37z m716 -128 c-10 -10 -19 5 -10
18 6 11 8 11 12 0 2 -7 1 -15 -2 -18z m-2106 -1217 c0 -8 -7 -16 -15 -20 -15
-5 -21 14 -8 27 11 12 23 8 23 -7z m-130 -107 c0 -29 -36 -73 -52 -63 -13 8
-10 19 13 48 21 27 39 34 39 15z m7220 -278 c0 -12 -20 -25 -27 -18 -7 7 6 27
18 27 5 0 9 -4 9 -9z m-635 -1431 c-9 -15 -65 -42 -77 -38 -6 2 4 14 23 26 36
23 65 29 54 12z m-7270 -70 c-3 -5 -10 -10 -16 -10 -5 0 -9 5 -9 10 0 6 7 10
16 10 8 0 12 -4 9 -10z m-442 -27 c-6 -2 -45 -31 -85 -64 -40 -32 -77 -59 -82
-59 -6 0 -32 -21 -58 -47 -43 -42 -50 -46 -75 -37 -42 14 -37 27 22 64 30 19
77 51 105 71 33 24 58 35 72 32 22 -4 40 8 77 52 10 13 16 14 25 5 8 -9 8 -14
-1 -17z m7381 -708 c-6 -16 -34 -21 -34 -7 0 13 11 22 26 22 8 0 11 -6 8 -15z
m-7094 -1179 c0 -3 -4 -8 -10 -11 -5 -3 -10 -1 -10 4 0 6 5 11 10 11 6 0 10
-2 10 -4z"/>
<path d="M7205 8539 c-4 -6 -5 -12 -2 -15 2 -3 7 2 10 11 7 17 1 20 -8 4z"/>
<path d="M6225 8439 c-11 -17 1 -21 15 -4 8 9 8 15 2 15 -6 0 -14 -5 -17 -11z"/>
<path d="M6872 8409 c2 -7 10 -15 17 -17 8 -3 12 1 9 9 -2 7 -10 15 -17 17 -8
3 -12 -1 -9 -9z"/>
<path d="M6070 8390 c-7 -13 -7 -20 -1 -20 6 0 15 9 21 20 7 13 7 20 1 20 -6
0 -15 -9 -21 -20z"/>
<path d="M4771 8327 c-24 -38 -26 -47 -11 -47 6 0 10 6 10 14 0 7 10 20 23 29
16 11 19 18 11 27 -9 9 -17 3 -33 -23z"/>
<path d="M5893 8240 c-13 -5 -23 -14 -23 -20 0 -13 17 -13 25 1 4 6 17 14 29
19 11 5 14 9 6 9 -8 0 -25 -4 -37 -9z"/>
<path d="M5385 8059 c-42 -43 -61 -52 -86 -38 -12 6 -25 7 -30 2 -5 -5 6 -17
26 -27 34 -19 36 -19 71 0 48 25 86 62 81 77 -7 23 -33 18 -62 -14z"/>
<path d="M5526 8081 c-4 -5 -2 -12 3 -15 5 -4 12 -2 15 3 4 5 2 12 -3 15 -5 4
-12 2 -15 -3z"/>
<path d="M4917 8008 c-10 -8 -14 -18 -8 -26 6 -10 13 -11 35 -1 27 13 30 32 5
37 -8 1 -22 -3 -32 -10z"/>
<path d="M5352 7937 c-12 -14 -5 -57 8 -57 10 0 19 60 9 65 -3 3 -12 -1 -17
-8z"/>
<path d="M7930 7685 c-13 -14 -20 -28 -17 -32 8 -7 57 35 57 49 0 15 -16 8
-40 -17z"/>
<path d="M8057 7433 c-12 -12 -7 -22 8 -17 8 4 15 10 15 15 0 11 -14 12 -23 2z"/>
<path d="M8330 6710 c0 -5 5 -10 10 -10 6 0 10 5 10 10 0 6 -4 10 -10 10 -5 0
-10 -4 -10 -10z"/>
<path d="M8175 6589 c-4 -6 -4 -13 -1 -16 8 -8 36 5 36 17 0 13 -27 13 -35 -1z"/>
<path d="M8125 6559 c-10 -15 3 -25 16 -12 7 7 7 13 1 17 -6 3 -14 1 -17 -5z"/>
<path d="M9199 5774 l-24 -27 28 18 c15 9 27 21 27 26 0 14 -5 11 -31 -17z"/>
<path d="M9280 5469 c0 -5 5 -7 10 -4 6 3 10 8 10 11 0 2 -4 4 -10 4 -5 0 -10
-5 -10 -11z"/>
<path d="M9790 4704 c0 -8 5 -12 10 -9 6 3 10 10 10 16 0 5 -4 9 -10 9 -5 0
-10 -7 -10 -16z"/>
<path d="M9176 4561 c-4 -5 -2 -12 3 -15 5 -4 12 -2 15 3 4 5 2 12 -3 15 -5 4
-12 2 -15 -3z"/>
<path d="M9157 4304 c-8 -8 1 -24 13 -24 4 0 10 7 14 15 5 15 -14 21 -27 9z"/>
<path d="M8980 4254 c0 -17 15 -25 34 -18 24 9 19 21 -9 26 -16 4 -25 1 -25
-8z"/>
<path d="M8988 4152 c-21 -15 -38 -33 -38 -39 0 -22 14 -14 55 27 45 46 37 52
-17 12z"/>
<path d="M8450 3381 c0 -11 4 -21 9 -21 18 0 21 18 6 30 -13 10 -15 9 -15 -9z"/>
<path d="M7206 2262 c-3 -6 -1 -14 5 -17 15 -10 25 3 12 16 -7 7 -13 7 -17 1z"/>
<path d="M5930 1344 c1 -11 36 -54 44 -54 3 0 6 11 6 25 0 14 -4 25 -9 25 -5
0 -16 3 -25 6 -9 3 -16 2 -16 -2z"/>
</g>
</svg>
